<svg width="386" height="385" viewBox="0 0 386 385" fill="none" xmlns="http://www.w3.org/2000/svg">
<g clip-path="url(#clip0_188_58)">
<path d="M384.099 0.40625C384.454 0.413795 384.81 0.42134 385.176 0.429142C385.225 9.10538 385.123 17.7693 384.883 26.4423C384.84 28.0135 384.799 29.5847 384.76 31.156C384.729 32.3843 384.696 33.6125 384.662 34.8407C384.647 35.4215 384.632 36.0023 384.617 36.583C384.597 37.3823 384.575 38.1814 384.552 38.9806C384.533 39.6591 384.533 39.6591 384.515 40.3512C384.443 41.4514 384.443 41.4514 384.076 42.5502C384.024 43.2503 383.993 43.952 383.972 44.6537C383.959 45.0872 383.945 45.5207 383.932 45.9674C383.912 46.6746 383.912 46.6746 383.892 47.3961C383.877 47.8909 383.862 48.3856 383.847 48.8803C383.807 50.1902 383.769 51.5001 383.732 52.81C383.386 64.8134 383.386 64.8134 383.158 70.7029C383.139 71.2486 383.139 71.2486 383.119 71.8053C383.105 72.1362 383.092 72.4671 383.078 72.808C383.061 73.2371 383.061 73.2371 383.044 73.6748C382.975 74.4157 382.975 74.4157 382.608 75.5145C382.556 76.3617 382.525 77.2103 382.505 78.0589C382.498 78.3163 382.491 78.5737 382.484 78.8389C382.47 79.3977 382.457 79.9565 382.444 80.5153C382.424 81.4007 382.402 82.286 382.379 83.1714C382.331 85.0524 382.286 86.9336 382.241 88.8147C382.189 90.9911 382.135 93.1675 382.079 95.3438C382.058 96.2141 382.038 97.0845 382.018 97.9549C382.004 98.4919 381.991 99.0288 381.977 99.5658C381.966 100.033 381.955 100.499 381.943 100.98C381.878 102.166 381.722 103.284 381.507 104.45C381.459 104.856 381.411 105.262 381.362 105.68C381.311 106.09 381.261 106.5 381.209 106.922C381.161 107.336 381.113 107.749 381.064 108.176C380.773 109.211 380.773 109.211 380.119 109.643C378.702 110.167 377.439 109.983 376.002 109.578C374.994 108.986 374.184 108.254 373.342 107.449C372.912 107.057 372.482 106.665 372.052 106.274C371.852 106.087 371.651 105.9 371.445 105.707C370.917 105.229 370.356 104.789 369.793 104.354C369.541 104.144 369.29 103.934 369.03 103.717C369.03 103.476 369.03 103.234 369.03 102.985C368.819 102.95 368.608 102.916 368.39 102.88C367.376 102.559 366.849 102.079 366.072 101.359C365.237 100.593 364.475 99.9533 363.526 99.3221C363.526 99.0804 363.526 98.8386 363.526 98.5896C363.319 98.5003 363.113 98.4111 362.9 98.3192C361.899 97.7697 361.172 97.1019 360.338 96.3233C358.848 94.9531 357.314 93.7071 355.68 92.5132C355.386 92.2575 355.386 92.2575 355.086 91.9967C355.086 91.755 355.086 91.5132 355.086 91.2642C354.786 91.1395 354.786 91.1395 354.48 91.0124C353.356 90.3851 352.517 89.578 351.577 88.7003C350.565 87.7573 349.634 86.9032 348.481 86.1364C348.481 85.8946 348.481 85.6529 348.481 85.4038C347.291 86.2791 346.46 86.9439 345.913 88.334C345.67 88.334 345.428 88.334 345.179 88.334C345.084 88.596 344.989 88.8581 344.892 89.1281C344.418 90.2282 343.847 91.1305 343.16 92.1112C342.937 92.4346 342.714 92.758 342.484 93.0912C342.283 93.3344 342.083 93.5775 341.876 93.8281C341.634 93.8281 341.392 93.8281 341.142 93.8281C341.066 94.1378 340.991 94.4475 340.913 94.7666C340.364 96.1361 339.697 96.9381 338.698 97.9987C338.124 98.6166 338.124 98.6166 337.84 99.6884C337.476 99.8697 337.476 99.8697 337.106 100.055C336.767 100.655 336.43 101.257 336.097 101.86C335.606 102.671 335.06 103.389 334.468 104.129C333.347 105.535 332.303 106.979 331.28 108.456C331.136 108.664 330.992 108.872 330.843 109.086C330.32 109.846 329.813 110.584 329.4 111.409C329.158 111.409 328.915 111.409 328.666 111.409C328.424 112.013 328.181 112.618 327.932 113.24C327.69 113.24 327.448 113.24 327.198 113.24C327.157 113.455 327.116 113.67 327.073 113.891C326.808 114.784 326.468 115.283 325.891 116.01C324.976 117.187 324.083 118.375 323.207 119.581C322.959 119.924 322.71 120.266 322.453 120.619C322.077 121.136 322.077 121.136 321.694 121.665C320.963 122.668 320.231 123.672 319.499 124.675C318.984 125.383 318.471 126.093 317.96 126.804C317.701 127.163 317.442 127.521 317.176 127.891C316.943 128.216 316.709 128.541 316.469 128.876C315.923 129.591 315.361 130.193 314.722 130.821C314.29 131.59 314.29 131.59 313.988 132.286C313.746 132.286 313.503 132.286 313.254 132.286C313.228 132.482 313.202 132.678 313.175 132.88C312.772 134.099 312.008 134.985 311.213 135.972C310.88 136.395 310.547 136.818 310.215 137.241C310.048 137.453 309.881 137.665 309.709 137.883C308.971 138.829 308.255 139.79 307.543 140.756C307.308 141.075 307.073 141.393 306.831 141.721C306.227 142.546 306.227 142.546 305.915 143.641C305.552 143.822 305.552 143.822 305.181 144.007C304.853 144.586 304.527 145.165 304.208 145.748C303.368 147.145 302.377 148.431 301.404 149.737C300.777 150.552 300.777 150.552 300.411 151.332C300.168 151.332 299.926 151.332 299.677 151.332C299.586 151.589 299.495 151.846 299.402 152.111C298.88 153.309 298.256 154.314 297.475 155.361C297.233 155.361 296.991 155.361 296.741 155.361C296.653 155.619 296.565 155.877 296.475 156.143C295.93 157.366 295.228 158.29 294.402 159.345C293.062 161.074 293.062 161.074 291.925 162.939C291.343 163.964 290.754 164.794 290.021 165.709C288.83 167.204 287.81 168.762 286.799 170.383C285.864 171.846 284.872 173.266 283.873 174.686C283.094 175.794 283.094 175.794 282.43 176.971C282.188 176.971 281.946 176.971 281.696 176.971C281.621 177.213 281.545 177.455 281.467 177.704C280.894 178.952 280.151 179.908 279.312 180.989C278.695 181.822 278.197 182.702 277.697 183.609C277.034 184.737 276.264 185.788 275.507 186.855C274.542 188.217 273.588 189.586 272.637 190.958C272.467 191.202 272.297 191.446 272.122 191.697C271.068 193.219 270.126 194.769 269.22 196.384C268.978 196.746 268.736 197.109 268.486 197.483C268.244 197.483 268.002 197.483 267.752 197.483C267.61 197.864 267.61 197.864 267.465 198.254C266.967 199.435 266.375 200.516 265.734 201.626C265.511 202.017 265.287 202.409 265.057 202.812C264.857 203.108 264.656 203.404 264.45 203.709C264.207 203.709 263.965 203.709 263.716 203.709C263.652 204.024 263.652 204.024 263.588 204.344C263.326 205.253 262.955 205.93 262.454 206.731C262.296 206.99 262.137 207.248 261.974 207.515C261.746 207.807 261.746 207.807 261.514 208.104C261.272 208.104 261.03 208.104 260.78 208.104C260.738 208.314 260.696 208.524 260.653 208.739C260.389 209.654 260.011 210.322 259.507 211.129C259.238 211.563 259.238 211.563 258.964 212.006C258.776 212.305 258.588 212.604 258.395 212.912C258.024 213.508 257.653 214.104 257.283 214.7C257.035 215.095 257.035 215.095 256.783 215.497C256.364 216.163 256.364 216.163 256.01 216.895C255.767 216.895 255.525 216.895 255.276 216.895C255.189 217.204 255.102 217.512 255.012 217.831C254.474 219.276 253.749 220.43 252.891 221.702C251.592 223.632 251.592 223.632 250.505 225.685C250.263 225.685 250.021 225.685 249.771 225.685C249.696 225.98 249.62 226.275 249.542 226.578C249.007 227.961 248.327 229.006 247.487 230.218C246.742 231.318 246.056 232.447 245.368 233.583C244.535 234.948 243.692 236.26 242.708 237.52C241.848 238.625 241.241 239.729 240.646 240.991C239.952 242.344 239.109 243.6 238.28 244.873C237.859 245.525 237.459 246.191 237.079 246.868C236.823 247.261 236.823 247.261 236.561 247.662C236.319 247.662 236.077 247.662 235.827 247.662C235.782 248.047 235.782 248.047 235.736 248.44C235.394 249.746 234.812 250.625 233.993 251.691C233.75 251.691 233.508 251.691 233.259 251.691C233.229 251.883 233.199 252.075 233.168 252.273C232.785 253.498 232.103 254.496 231.401 255.559C231.254 255.785 231.108 256.01 230.957 256.242C229.797 258.008 228.567 259.715 227.287 261.397C226.598 262.393 226.072 263.417 225.553 264.51C225.311 264.51 225.068 264.51 224.819 264.51C224.724 264.775 224.63 265.04 224.532 265.313C224.063 266.393 223.509 267.21 222.801 268.15C221.593 269.773 220.4 271.403 219.223 273.049C219.072 273.259 218.921 273.469 218.765 273.686C218.044 274.693 217.346 275.705 216.683 276.75C216.462 277.062 216.24 277.374 216.012 277.696C215.77 277.696 215.528 277.696 215.278 277.696C215.036 278.3 214.794 278.904 214.544 279.527C214.302 279.527 214.06 279.527 213.81 279.527C213.689 280.011 213.568 280.494 213.443 280.992C213.201 280.992 212.959 280.992 212.71 280.992C212.621 281.258 212.532 281.525 212.44 281.799C211.916 282.955 211.295 283.651 210.416 284.563C209.085 285.992 207.991 287.439 206.94 289.08C206.381 289.918 205.784 290.608 205.004 291.248C204.761 291.248 204.519 291.248 204.27 291.248C204.231 291.464 204.193 291.68 204.153 291.903C203.865 292.835 203.508 293.256 202.833 293.955C202.616 294.183 202.398 294.411 202.174 294.646C201.826 295.004 201.826 295.004 201.472 295.368C201 295.862 200.528 296.356 200.057 296.85C199.832 297.086 199.606 297.321 199.374 297.564C198.668 298.31 197.989 299.076 197.321 299.855C196.364 300.965 195.349 301.992 194.302 303.017C193.66 303.668 193.066 304.339 192.473 305.034C190.959 306.771 189.345 308.396 187.711 310.019C187.423 310.308 187.135 310.597 186.838 310.895C183.03 314.689 183.03 314.689 181.886 314.689C181.765 315.052 181.643 315.414 181.519 315.788C181.009 316.227 180.498 316.667 179.965 317.078C179.081 317.816 178.29 318.631 177.482 319.451C173.317 323.668 173.317 323.668 171.611 324.945C171.369 324.945 171.127 324.945 170.877 324.945C170.756 325.307 170.635 325.67 170.51 326.043C169.728 326.708 168.945 327.329 168.125 327.943C166.587 329.119 165.081 330.297 163.653 331.606C161.027 333.985 158.055 335.938 155.133 337.931C154.436 338.444 153.868 338.981 153.264 339.595C151.209 341.06 151.209 341.06 150.328 341.06C150.328 341.302 150.328 341.544 150.328 341.793C149.722 342.035 149.117 342.276 148.493 342.526C148.493 342.767 148.493 343.009 148.493 343.258C147.797 343.81 147.797 343.81 146.888 344.403C146.59 344.6 146.292 344.797 145.985 345.001C145.191 345.456 145.191 345.456 144.457 345.456C144.457 345.697 144.457 345.939 144.457 346.188C143.038 347.286 141.602 348.193 140.03 349.061C139.172 349.573 138.368 350.142 137.553 350.721C132.572 354.246 132.572 354.246 131.247 354.246C131.247 354.488 131.247 354.73 131.247 354.979C130.967 355.107 130.686 355.236 130.398 355.368C128.928 356.098 127.577 357.004 126.208 357.905C119.426 362.07 112.113 365.534 104.901 368.886C104.185 369.22 103.472 369.558 102.761 369.9C100.026 371.196 97.2328 372.28 94.3903 373.313C93.2924 373.717 92.1991 374.132 91.1056 374.547C86.7015 376.212 82.3337 377.763 77.7721 378.931C76.8355 379.18 75.9066 379.45 74.977 379.723C71.8953 380.631 68.8793 381.503 65.69 381.951C64.7516 382.075 64.7516 382.075 63.5671 382.449C61.9392 382.905 60.3097 383.123 58.6377 383.362C57.7284 383.509 56.8999 383.696 56.0217 383.96C54.0108 384.501 51.8453 384.472 49.7835 384.28C49.4203 384.039 49.057 383.797 48.6827 383.548C48.8038 382.823 48.9249 382.097 49.0496 381.35C49.2918 381.35 49.534 381.35 49.7835 381.35C49.8791 381.085 49.9747 380.82 50.0731 380.548C50.5323 379.484 51.077 378.647 51.7559 377.71C52.5098 376.664 53.2467 375.619 53.9347 374.528C54.139 374.241 54.3434 373.954 54.5539 373.659C54.7961 373.659 55.0383 373.659 55.2878 373.659C55.381 373.399 55.4742 373.139 55.5702 372.872C56.0636 371.73 56.6706 370.792 57.3748 369.767C58.6363 367.918 59.8325 366.041 60.9956 364.13C61.1706 363.89 61.3456 363.65 61.526 363.403C61.7681 363.403 62.0103 363.403 62.2599 363.403C62.3194 362.999 62.3195 362.999 62.3803 362.587C62.642 361.509 63.0018 360.873 63.6359 359.969C63.8322 359.686 64.0285 359.403 64.2308 359.111C64.7704 358.356 65.3147 357.606 65.8606 356.856C66.7004 355.774 66.7004 355.774 67.0302 354.612C67.2724 354.612 67.5146 354.612 67.7641 354.612C67.7993 354.416 67.8346 354.22 67.8709 354.017C68.2101 352.883 68.7596 351.969 69.3581 350.947C69.4788 350.739 69.5996 350.532 69.7241 350.318C70.1087 349.658 70.4959 348.999 70.8832 348.34C71.2699 347.678 71.6562 347.016 72.0423 346.354C72.3921 345.755 72.7431 345.157 73.0942 344.558C73.4113 344.011 73.7189 343.457 74.0023 342.892C74.2445 342.892 74.4866 342.892 74.7362 342.892C74.7777 342.628 74.8192 342.364 74.862 342.093C75.1167 341.002 75.4977 340.18 76.0248 339.193C76.2111 338.842 76.3974 338.49 76.5894 338.127C76.7876 337.758 76.9859 337.389 77.1901 337.009C77.5941 336.246 77.9979 335.484 78.4014 334.721C78.5942 334.358 78.787 333.995 78.9857 333.621C80.7451 330.295 82.3546 326.905 83.9099 323.479C84.0226 323.235 84.1352 322.99 84.2513 322.738C85.8221 319.326 87.265 315.898 88.5211 312.357C89.0235 310.947 89.5613 309.577 90.1854 308.216C90.7606 306.949 91.1726 305.727 91.4783 304.365C91.8154 302.886 92.2275 301.474 92.7167 300.038C93.5651 297.259 94.3152 294.463 94.9872 291.637C95.0484 291.382 95.1097 291.126 95.1727 290.863C95.4541 289.657 95.6827 288.467 95.8545 287.24C96.0193 286.12 96.0193 286.12 96.3862 285.754C96.492 284.951 96.5756 284.146 96.65 283.34C96.6731 283.098 96.6961 282.857 96.7198 282.608C96.7937 281.833 96.8654 281.058 96.9367 280.283C97.0305 279.264 97.1264 278.246 97.2234 277.228C97.2652 276.774 97.3071 276.32 97.3502 275.852C97.4871 274.766 97.4871 274.766 97.854 274.033C98.3707 269.295 98.2645 264.507 98.2439 259.748C98.2439 258.999 98.2402 258.249 98.2388 257.499C98.2347 255.685 98.2285 253.871 98.2208 252.057C97.9786 252.057 97.7364 252.057 97.4869 252.057C97.4576 251.837 97.4279 251.618 97.3975 251.391C97.261 250.384 97.1217 249.378 96.9824 248.371C96.9128 247.853 96.9128 247.853 96.8419 247.325C96.5765 245.424 96.2251 243.638 95.6522 241.801C95.5055 241.272 95.3608 240.742 95.2178 240.212C95.1424 239.936 95.0669 239.66 94.9892 239.375C94.8354 238.812 94.6824 238.248 94.5305 237.684C94.0233 235.837 93.4108 234.062 92.7166 232.278C92.5158 231.723 92.5158 231.723 92.3109 231.157C91.1862 228.109 89.7964 225.254 88.3103 222.372C87.9696 221.702 87.6421 221.026 87.3155 220.35C86.0037 217.636 84.5407 215.105 82.8822 212.588C81.708 210.781 81.708 210.781 81.708 209.569C81.3448 209.449 80.9815 209.328 80.6072 209.203C80.0983 208.472 80.0983 208.472 79.621 207.578C79.4607 207.284 79.3003 206.99 79.1351 206.686C78.7724 205.907 78.7724 205.907 78.7724 205.174C78.5303 205.174 78.2881 205.174 78.0385 205.174C77.4308 204.357 77.4308 204.357 76.7542 203.274C76.531 202.921 76.3077 202.569 76.0777 202.205C75.4699 201.145 75.4699 201.145 75.0915 200.119C74.9742 199.854 74.8569 199.588 74.736 199.314C74.3727 199.193 74.0094 199.072 73.6351 198.948C73.514 198.585 73.393 198.222 73.2682 197.849C72.9066 197.477 72.5386 197.112 72.1673 196.75C71.6761 196.109 71.1954 195.459 70.7225 194.804C70.4637 194.446 70.205 194.088 69.9384 193.72C69.4114 192.975 68.9002 192.228 68.4061 191.462C67.8067 190.524 67.8067 190.524 67.0759 189.837C66.2948 189.057 65.6056 188.251 64.9201 187.387C64.6949 187.107 64.4697 186.827 64.2378 186.539C63.7275 185.762 63.7275 185.762 63.7275 184.663C63.3642 184.542 63.0009 184.421 62.6266 184.297C62.0056 183.561 61.4295 182.828 60.8607 182.053C60.533 181.617 60.2047 181.181 59.8759 180.746C59.718 180.536 59.5601 180.326 59.3974 180.11C58.564 179.022 57.6587 178.002 56.7554 176.971C55.2876 175.236 55.2876 175.236 55.2876 174.408C54.9243 174.287 54.5611 174.166 54.1868 174.041C54.0657 173.679 53.9446 173.316 53.8198 172.942C53.2167 172.324 52.6036 171.714 51.9851 171.111C50.3365 169.202 48.8461 167.188 47.3516 165.158C46.5664 164.101 45.8113 163.117 44.8768 162.186C44.2791 161.588 44.2791 161.588 44.2791 160.856C44.0369 160.856 43.7947 160.856 43.5452 160.856C42.9023 160.138 42.3076 159.412 41.7105 158.658C41.4555 158.349 41.2005 158.04 40.9378 157.722C40.6706 157.396 40.4033 157.071 40.128 156.735C39.8721 156.423 39.6162 156.112 39.3525 155.791C38.7749 154.995 38.7748 154.995 38.7748 154.263C38.4116 154.142 38.0483 154.021 37.674 153.896C37.5517 153.408 37.4294 152.92 37.307 152.431C36.9438 152.31 36.5805 152.19 36.2062 152.065C35.6138 151.375 35.0703 150.689 34.532 149.959C34.2062 149.527 33.8803 149.095 33.5544 148.663C33.3873 148.439 33.2202 148.216 33.0481 147.986C32.2207 146.882 31.3815 145.788 30.5414 144.694C30.39 144.495 30.2386 144.296 30.0826 144.09C29.4916 143.319 28.9094 142.583 28.2121 141.904C27.7663 141.443 27.7663 141.443 27.7663 140.711C27.4031 140.59 27.0398 140.469 26.6655 140.344C26.4132 139.589 26.4132 139.589 26.2985 138.879C26.0564 138.879 25.8142 138.879 25.5646 138.879C25.1017 138.354 25.1017 138.354 24.5785 137.62C23.5208 136.158 22.4116 134.747 21.2788 133.342C20.7943 132.653 20.7943 132.653 20.7943 131.92C20.5521 131.92 20.3099 131.92 20.0604 131.92C19.5458 131.251 19.5458 131.251 18.9825 130.364C18.4242 129.491 17.8754 128.645 17.238 127.828C16.7578 127.159 16.7578 127.159 16.7578 126.426C16.5156 126.426 16.2735 126.426 16.0239 126.426C15.4678 125.648 15.4678 125.648 14.8313 124.595C14.044 123.321 13.2525 122.09 12.3315 120.909C11.0904 119.289 10.0685 117.571 9.05187 115.804C8.92149 115.579 8.79112 115.354 8.65677 115.122C4.2817 107.546 4.2817 107.546 4.2817 105.549C4.03951 105.549 3.79732 105.549 3.5478 105.549C-0.30309 95.9751 -0.30309 95.9751 0.885975 92.2342C1.5754 90.6637 2.44218 89.6286 3.91475 88.7003C4.15693 88.7003 4.39912 88.7003 4.64865 88.7003C4.64865 88.4585 4.64865 88.2168 4.64865 87.9677C8.51965 85.8083 13.1884 85.312 17.4919 86.5026C17.4919 86.7444 17.4919 86.9861 17.4919 87.2352C17.9006 87.2579 18.3093 87.2805 18.7304 87.3039C22.7495 87.8378 25.812 90.6519 28.8674 93.0955C29.4094 93.5162 29.9521 93.936 30.4957 94.3546C31.054 94.7892 31.6121 95.2242 32.1699 95.6594C32.5455 95.9517 32.9211 96.2439 33.3081 96.545C35.6091 98.3397 37.8901 100.156 40.1511 102C42.561 103.966 45.0055 105.882 47.4665 107.783C49.2259 109.142 50.9683 110.52 52.6976 111.917C53.4364 112.495 54.1933 113.03 54.9667 113.561C55.3149 113.818 55.663 114.075 56.0217 114.339C56.0217 114.581 56.0217 114.823 56.0217 115.072C56.6272 115.313 57.2326 115.555 57.8564 115.804C57.8564 116.046 57.8564 116.288 57.8564 116.537C58.2639 116.684 58.2639 116.684 58.6796 116.833C59.6674 117.259 60.3636 117.716 61.1992 118.385C61.4763 118.604 61.7535 118.823 62.0391 119.049C62.3239 119.278 62.6086 119.506 62.902 119.742C64.8757 121.318 66.8484 122.801 68.9958 124.136C69.2943 124.363 69.2943 124.363 69.5989 124.595C69.5989 124.836 69.5989 125.078 69.5989 125.327C69.9941 125.468 69.9941 125.468 70.3973 125.612C71.4965 126.087 72.3685 126.664 73.3372 127.365C74.5449 128.247 74.5449 128.247 75.837 128.99C75.837 129.232 75.837 129.473 75.837 129.723C76.0414 129.753 76.2457 129.783 76.4562 129.814C77.5617 130.172 78.2566 130.812 79.1396 131.554C79.3818 131.675 79.6239 131.796 79.8735 131.92C79.8735 132.162 79.8735 132.404 79.8735 132.653C80.0873 132.695 80.3011 132.737 80.5214 132.78C81.4019 133.037 81.9756 133.379 82.7173 133.912C83.0551 134.149 83.0551 134.149 83.3997 134.391C83.568 134.543 83.7364 134.694 83.9099 134.85C83.9099 135.092 83.9099 135.334 83.9099 135.583C84.2128 135.635 84.2128 135.635 84.5217 135.688C85.6078 136.019 86.3906 136.555 87.3314 137.19C87.7091 137.443 88.0869 137.696 88.476 137.957C89.0653 138.357 89.0653 138.357 89.6665 138.765C90.0522 139.024 90.438 139.284 90.8354 139.551C91.5966 140.063 92.3573 140.576 93.1176 141.089C98.4451 144.685 103.871 148.125 109.439 151.338C110.417 151.903 111.394 152.472 112.369 153.044C115.553 154.905 118.733 156.718 122.073 158.292C122.497 158.493 122.92 158.695 123.357 158.903C124.523 159.454 125.695 159.995 126.868 160.531C127.331 160.743 127.792 160.956 128.253 161.172C131.416 162.65 134.631 163.869 137.943 164.976C138.484 165.157 138.484 165.157 139.035 165.342C141.55 166.164 144.081 166.851 146.658 167.448C147.13 167.559 147.13 167.559 147.611 167.671C158.525 170.079 170.716 169.855 181.519 167.082C181.798 167.014 182.076 166.946 182.364 166.875C186.397 165.878 190.046 164.402 193.628 162.321C194.253 161.966 194.879 161.612 195.504 161.258C197.607 160.066 199.688 158.846 201.741 157.571C202.435 157.193 202.435 157.193 203.169 157.193C203.169 156.951 203.169 156.709 203.169 156.46C203.871 155.957 203.871 155.957 204.866 155.361C207.016 154.036 209.062 152.599 211.11 151.124C211.41 150.907 211.41 150.907 211.717 150.687C212.161 150.365 212.603 150.041 213.043 149.715C214.832 148.402 214.832 148.402 215.645 148.402C215.766 148.04 215.887 147.677 216.012 147.304C216.719 146.706 217.422 146.155 218.168 145.61C218.607 145.28 219.045 144.951 219.484 144.621C219.704 144.456 219.923 144.291 220.15 144.121C224.086 141.132 227.885 137.88 231.539 134.553C232.602 133.584 233.673 132.691 234.841 131.851C235.911 131.077 236.68 130.265 237.494 129.217C238.444 128.163 239.596 127.347 240.712 126.476C243.128 124.56 245.318 122.52 247.306 120.167C248.192 119.183 249.179 118.345 250.19 117.493C250.804 116.962 251.367 116.413 251.927 115.827C252.707 115.072 252.707 115.072 253.441 115.072C253.441 114.83 253.441 114.588 253.441 114.339C254.057 113.707 254.057 113.707 254.863 113.011C255.127 112.78 255.391 112.549 255.663 112.31C256.377 111.775 256.377 111.775 257.111 111.775C257.232 111.413 257.353 111.05 257.477 110.676C257.72 110.676 257.962 110.676 258.211 110.676C258.454 110.193 258.696 109.71 258.945 109.211C259.187 109.211 259.43 109.211 259.679 109.211C259.921 108.728 260.164 108.244 260.413 107.746C260.655 107.746 260.897 107.746 261.147 107.746C261.238 107.535 261.329 107.323 261.422 107.105C261.948 106.161 262.536 105.526 263.349 104.816C263.591 104.816 263.833 104.816 264.083 104.816C264.204 104.454 264.325 104.091 264.45 103.717C264.996 103.194 264.996 103.194 265.665 102.664C266.472 102.001 267.094 101.424 267.752 100.604C268.576 99.5764 269.488 98.8051 270.508 97.9786C271.102 97.5088 271.102 97.5088 271.422 96.7582C271.664 96.7582 271.906 96.7582 272.155 96.7582C272.239 96.5561 272.322 96.3541 272.408 96.1459C273.031 95.0415 273.824 94.2631 274.724 93.3702C275.05 93.0435 275.375 92.7168 275.71 92.3801C276.559 91.6304 276.559 91.6304 277.293 91.6304C277.391 91.3962 277.49 91.1621 277.591 90.9208C278.027 90.1654 278.027 90.1654 279.128 89.7991C279.249 89.4365 279.37 89.0739 279.494 88.7003C280.018 88.2626 280.543 87.8265 281.078 87.4026C281.949 86.6506 282.655 85.7894 283.39 84.9088C284.011 84.171 284.646 83.4816 285.366 82.84C285.608 82.84 285.85 82.84 286.1 82.84C286.221 82.4773 286.342 82.1147 286.467 81.7411C287.065 81.2433 287.664 80.746 288.265 80.2517C289.802 78.8377 291.04 77.1446 292.338 75.5145C293.63 73.9177 294.944 72.5376 296.552 71.2509C297.203 70.7095 297.203 70.7095 297.842 69.6542C298.084 69.6542 298.326 69.6542 298.576 69.6542C298.674 69.3747 298.773 69.0952 298.874 68.8072C299.292 67.8632 299.609 67.3579 300.411 66.7241C300.653 66.7241 300.895 66.7241 301.145 66.7241C301.235 66.5144 301.326 66.3048 301.42 66.0888C301.949 65.1307 302.569 64.4723 303.346 63.7023C303.604 63.4436 303.861 63.1849 304.126 62.9183C304.814 62.3288 304.814 62.3288 305.548 62.3288C305.646 62.1173 305.745 61.9058 305.846 61.6878C306.293 60.8434 306.76 60.1237 307.383 59.3987C307.625 59.3987 307.867 59.3987 308.117 59.3987C308.207 59.1871 308.298 58.9756 308.392 58.7577C308.918 57.8129 309.505 57.1786 310.318 56.4685C310.56 56.4685 310.803 56.4685 311.052 56.4685C311.294 55.7433 311.537 55.0181 311.786 54.2709C309.673 52.6809 307.559 51.096 305.41 49.5551C303.152 47.9231 300.97 46.1979 298.785 44.4705C296.375 42.5668 293.929 40.7164 291.458 38.8932C290.503 38.155 290.503 38.155 289.977 37.6242C288.861 36.5216 287.537 35.6347 286.274 34.7062C285.713 34.2853 285.171 33.841 284.632 33.3935C284.632 33.1517 284.632 32.91 284.632 32.6609C284.268 32.6609 283.905 32.6609 283.531 32.6609C283.218 31.2422 283.099 30.3072 283.531 28.9067C284.84 27.1103 286.87 26.7266 288.985 26.3671C289.229 26.3288 289.472 26.2906 289.723 26.2512C291.295 26.0016 292.78 25.6998 294.286 25.1767C296.195 24.5138 298.139 24.0896 300.113 23.6644C302.21 23.2096 304.252 22.7458 306.282 22.0391C306.838 21.9079 307.396 21.7848 307.956 21.6728C308.853 21.4824 309.628 21.2886 310.479 20.9403C311.395 20.5834 312.22 20.4077 313.185 20.2306C314.609 19.9631 315.891 19.5929 317.224 19.0288C318.159 18.6945 319.109 18.4633 320.073 18.2292C321.897 17.7788 323.709 17.2839 325.524 16.7968C326.158 16.6267 326.158 16.6267 326.805 16.453C329.418 15.748 332.02 15.0142 334.614 14.2406C338.231 13.1646 341.882 12.2175 345.554 11.3471C346.433 11.1089 347.279 10.843 348.14 10.5502C350.25 9.83787 352.391 9.24357 354.536 8.64733C354.931 8.53614 355.326 8.42495 355.733 8.31039C357.729 7.75332 359.723 7.24035 361.75 6.80731C362.538 6.63047 363.293 6.39972 364.054 6.12922C366.364 5.33506 368.678 4.59455 371.072 4.09184C372.406 3.80837 373.659 3.41396 374.946 2.96585C376.744 2.3888 378.57 1.91081 380.394 1.42306C381.707 1.06741 382.8 0.432695 384.099 0.40625Z" fill="url(#paint0_linear_188_58)"/>
<path d="M157.563 40.7385C157.86 40.7359 158.157 40.7336 158.464 40.7311C159.09 40.7274 159.716 40.7257 160.342 40.7258C161.277 40.7243 162.212 40.7109 163.146 40.697C167.368 40.6685 171.183 41.2435 175.258 42.3266C175.631 42.4237 176.004 42.5207 176.389 42.6207C178.694 43.2405 180.82 44.2219 182.964 45.2568C183.242 45.3904 183.52 45.524 183.807 45.6617C186.535 46.9976 186.535 46.9976 187.734 47.8207C187.734 48.0624 187.734 48.3041 187.734 48.5532C187.948 48.5952 188.162 48.6372 188.382 48.6805C189.263 48.9371 189.836 49.2791 190.578 49.8123C190.803 49.9704 191.028 50.1286 191.26 50.2916C191.429 50.4431 191.597 50.5947 191.771 50.7508C191.771 50.9926 191.771 51.2343 191.771 51.4834C192.376 51.7251 192.982 51.9668 193.605 52.2159C193.605 52.4576 193.605 52.6994 193.605 52.9484C193.969 53.0693 194.332 53.1902 194.706 53.3147C194.706 53.5565 194.706 53.7982 194.706 54.0473C195.07 54.1681 195.433 54.289 195.807 54.4135C197.489 56.0448 198.921 57.958 200.211 59.9076C200.211 60.1493 200.211 60.3911 200.211 60.6401C200.453 60.6401 200.695 60.6401 200.944 60.6401C202.734 63.5101 204.233 66.4129 205.508 69.5451C205.634 69.8464 205.759 70.1478 205.888 70.4582C206.678 72.455 207.03 74.2475 207.183 76.3897C207.425 76.3897 207.667 76.3897 207.917 76.3897C210.021 85.9255 210.333 95.0312 206.816 104.226C206.695 104.589 206.574 104.951 206.449 105.325C206.207 105.325 205.964 105.325 205.715 105.325C205.692 105.673 205.669 106.02 205.646 106.378C204.904 111.429 200.216 117.696 196.541 121.075C196.261 121.354 195.981 121.634 195.693 121.922C195.367 122.247 195.042 122.571 194.706 122.906C194.422 123.216 194.422 123.216 194.132 123.531C192.554 125.201 190.844 126.588 188.996 127.942C188.652 128.195 188.652 128.195 188.301 128.453C184.597 131.118 180.578 132.897 176.267 134.352C175.851 134.494 175.851 134.494 175.426 134.639C175.157 134.727 174.887 134.816 174.61 134.907C174.372 134.986 174.135 135.064 173.89 135.145C170.979 135.893 168.011 135.799 165.029 135.794C164.774 135.794 164.52 135.793 164.257 135.793C151.357 135.755 139.038 131.602 129.458 122.677C128.655 121.807 127.927 120.899 127.187 119.976C126.87 119.666 126.552 119.356 126.224 119.037C125.445 118.239 125.105 117.65 124.619 116.679C124.256 116.559 123.892 116.438 123.518 116.313C123.266 115.558 123.266 115.558 123.151 114.848C122.909 114.848 122.667 114.848 122.417 114.848C117.647 106.739 117.647 106.739 117.647 103.494C117.405 103.494 117.162 103.494 116.913 103.494C115.6 99.3528 115.094 95.3336 114.797 91.01C114.747 90.2779 114.747 90.2779 114.344 89.5754C114.298 88.2706 114.298 88.2706 114.344 87.0115C114.526 86.8302 114.526 86.8302 114.711 86.6453C114.777 86.0896 114.821 85.5312 114.856 84.9727C114.881 84.6234 114.905 84.274 114.93 83.9141C114.956 83.5387 114.982 83.1633 115.009 82.7765C115.285 79.1725 115.877 75.8195 116.913 72.3607C117.155 72.3607 117.397 72.3607 117.647 72.3607C117.678 72.0047 117.709 71.6487 117.741 71.2819C117.989 69.56 118.685 68.1027 119.436 66.5462C119.629 66.1227 119.629 66.1227 119.827 65.6906C119.954 65.4224 120.081 65.1542 120.213 64.8779C120.385 64.514 120.385 64.514 120.561 64.1427C120.949 63.5702 120.949 63.5702 122.05 63.204C122.08 62.9471 122.111 62.6903 122.142 62.4256C122.483 61.1198 123.065 60.2408 123.885 59.175C124.127 59.175 124.369 59.175 124.619 59.175C124.861 58.5706 125.103 57.9663 125.353 57.3436C125.595 57.3436 125.837 57.3436 126.087 57.3436C126.329 56.8602 126.571 56.3767 126.821 55.8786C127.063 55.8786 127.305 55.8786 127.554 55.8786C127.797 55.3951 128.039 54.9116 128.288 54.4135C128.531 54.4135 128.773 54.4135 129.022 54.4135C129.105 54.202 129.189 53.9904 129.275 53.7725C129.884 52.7301 130.634 52.2164 131.591 51.4833C132.056 51.0187 132.056 51.0187 132.531 50.5447C133.289 49.7888 133.999 49.1378 134.893 48.5531C135.136 48.5531 135.378 48.5531 135.627 48.5531C135.627 48.3114 135.627 48.0697 135.627 47.8206C140.5 44.8262 145.436 42.8122 151.039 41.594C151.393 41.5055 151.393 41.5055 151.754 41.4152C153.714 40.9405 155.549 40.7445 157.563 40.7385Z" fill="url(#paint1_linear_188_58)"/>
<path d="M206.495 105.2L204.827 108.964L205.01 105.489L205.252 104.401L206.495 105.2Z" fill="#627BD4"/>
<path d="M123.484 116.331L122.383 114.866L123.3 113.767H124.951L126.419 114.866L126.786 117.979L125.869 118.712L125.318 118.162L123.484 116.331Z" fill="#8724BD"/>
<path d="M306.631 336.592C308.189 336.592 309.461 336.908 310.445 337.541C311.441 338.174 312.121 338.941 312.484 339.844H312.625V329.49H315.631V357H312.783V353.818H312.625C312.367 354.721 311.699 355.529 310.621 356.244C309.543 356.947 308.178 357.299 306.525 357.299C304.205 357.299 302.33 356.549 300.9 355.049C299.482 353.549 298.773 351.539 298.773 349.02V344.854C298.773 342.393 299.482 340.4 300.9 338.877C302.33 337.354 304.24 336.592 306.631 336.592ZM307.035 339.264C305.406 339.264 304.117 339.826 303.168 340.951C302.23 342.064 301.762 343.623 301.762 345.627V348.264C301.762 350.279 302.242 351.85 303.203 352.975C304.176 354.1 305.488 354.662 307.141 354.662C308.805 354.662 310.135 354.123 311.131 353.045C312.127 351.955 312.625 350.479 312.625 348.615V344.854C312.625 343.248 312.098 341.918 311.043 340.863C310 339.797 308.664 339.264 307.035 339.264Z" fill="#627CD6"/>
<path d="M285.906 357.334C283.281 357.334 281.225 356.549 279.736 354.979C278.248 353.396 277.504 351.264 277.504 348.58V345.328C277.504 342.691 278.266 340.576 279.789 338.982C281.312 337.389 283.275 336.592 285.678 336.592C288.08 336.592 290.043 337.389 291.566 338.982C293.09 340.576 293.852 342.691 293.852 345.328V347.789H280.527V348.809C280.527 350.508 280.996 351.908 281.934 353.01C282.883 354.111 284.207 354.662 285.906 354.662C287.078 354.662 288.057 354.428 288.842 353.959C289.639 353.479 290.148 352.904 290.371 352.236H293.553C293.459 352.799 293.236 353.361 292.885 353.924C292.533 354.486 292.059 355.031 291.461 355.559C290.863 356.086 290.078 356.514 289.105 356.842C288.145 357.17 287.078 357.334 285.906 357.334ZM280.527 345.469H290.811V345.117C290.811 343.945 290.594 342.914 290.16 342.023C289.738 341.133 289.135 340.453 288.35 339.984C287.576 339.504 286.68 339.264 285.66 339.264C284.125 339.264 282.883 339.797 281.934 340.863C280.996 341.918 280.527 343.336 280.527 345.117V345.469Z" fill="#627CD6"/>
<path d="M262.668 357.334C261.719 357.334 260.834 357.182 260.014 356.877C259.193 356.572 258.502 356.156 257.939 355.629C257.377 355.102 256.932 354.457 256.604 353.695C256.275 352.922 256.111 352.072 256.111 351.146C256.111 349.975 256.375 348.955 256.902 348.088C257.43 347.221 258.227 346.541 259.293 346.049C260.371 345.545 261.654 345.293 263.143 345.293H268.521V343.236C268.521 341.9 268.129 340.91 267.344 340.266C266.57 339.621 265.475 339.299 264.057 339.299C261.736 339.299 260.318 340.102 259.803 341.707H256.885C257.049 340.02 257.77 338.748 259.047 337.893C260.336 337.025 262.053 336.592 264.197 336.592C266.365 336.592 268.135 337.131 269.506 338.209C270.877 339.275 271.562 340.939 271.562 343.201V357H268.627V354.293H268.521C267.256 356.32 265.305 357.334 262.668 357.334ZM263.424 354.732C264.865 354.732 266.072 354.293 267.045 353.414C268.029 352.535 268.521 351.439 268.521 350.127V347.789H263.213C261.842 347.789 260.834 348.094 260.189 348.703C259.545 349.312 259.223 350.115 259.223 351.111C259.223 352.283 259.633 353.18 260.453 353.801C261.273 354.422 262.264 354.732 263.424 354.732Z" fill="#627CD6"/>
<path d="M252.631 336.908L247.252 357H244.334L239.605 341.338H239.535L234.965 357H231.994L226.299 336.908H229.727L233.418 352.975H233.576L238.146 336.908H240.994L245.688 352.975H245.828L249.625 336.908H252.631Z" fill="#627CD6"/>
<path d="M212.852 357.334C211.902 357.334 211.018 357.182 210.197 356.877C209.377 356.572 208.686 356.156 208.123 355.629C207.561 355.102 207.115 354.457 206.787 353.695C206.459 352.922 206.295 352.072 206.295 351.146C206.295 349.975 206.559 348.955 207.086 348.088C207.613 347.221 208.41 346.541 209.477 346.049C210.555 345.545 211.838 345.293 213.326 345.293H218.705V343.236C218.705 341.9 218.312 340.91 217.527 340.266C216.754 339.621 215.658 339.299 214.24 339.299C211.92 339.299 210.502 340.102 209.986 341.707H207.068C207.232 340.02 207.953 338.748 209.23 337.893C210.52 337.025 212.236 336.592 214.381 336.592C216.549 336.592 218.318 337.131 219.689 338.209C221.061 339.275 221.746 340.939 221.746 343.201V357H218.811V354.293H218.705C217.439 356.32 215.488 357.334 212.852 357.334ZM213.607 354.732C215.049 354.732 216.256 354.293 217.229 353.414C218.213 352.535 218.705 351.439 218.705 350.127V347.789H213.396C212.025 347.789 211.018 348.094 210.373 348.703C209.729 349.312 209.406 350.115 209.406 351.111C209.406 352.283 209.816 353.18 210.637 353.801C211.457 354.422 212.447 354.732 213.607 354.732Z" fill="#627CD6"/>
<path d="M182.688 350.004H185.764C185.904 351.398 186.549 352.541 187.697 353.432C188.846 354.322 190.404 354.768 192.373 354.768C194.225 354.768 195.713 354.34 196.838 353.484C197.963 352.629 198.525 351.469 198.525 350.004C198.525 348.914 198.174 348.029 197.471 347.35C196.779 346.658 195.689 346.119 194.201 345.732L189.525 344.484C187.768 344.027 186.32 343.248 185.184 342.146C184.059 341.045 183.496 339.568 183.496 337.717C183.496 336.158 183.924 334.799 184.779 333.639C185.646 332.479 186.742 331.629 188.066 331.09C189.402 330.539 190.85 330.264 192.408 330.264C193.533 330.264 194.6 330.41 195.607 330.703C196.627 330.996 197.57 331.43 198.438 332.004C199.305 332.566 199.996 333.34 200.512 334.324C201.039 335.297 201.326 336.404 201.373 337.646H198.297C198.156 336.275 197.576 335.168 196.557 334.324C195.549 333.469 194.143 333.041 192.338 333.041C190.639 333.041 189.256 333.434 188.189 334.219C187.123 334.992 186.59 336.088 186.59 337.506C186.59 339.521 187.826 340.852 190.299 341.496L194.869 342.727C197.061 343.336 198.736 344.186 199.896 345.275C201.057 346.365 201.637 347.871 201.637 349.793C201.637 352.277 200.729 354.193 198.912 355.541C197.096 356.877 194.781 357.545 191.969 357.545C190.363 357.545 188.939 357.316 187.697 356.859C186.455 356.391 185.488 355.781 184.797 355.031C184.117 354.27 183.602 353.467 183.25 352.623C182.898 351.779 182.711 350.906 182.688 350.004Z" fill="#627CD6"/>
<path d="M353.789 307.688C355.133 307.688 356.605 308.52 356.861 309.672L358.269 315.88H366.141L363.965 306.344C363.709 305.192 364.541 304.296 366.013 304.296C367.357 304.296 368.829 305.128 369.085 306.28L371.325 315.88H378.813L376.189 304.552C375.869 303.208 376.765 302.376 378.237 302.376C379.581 302.376 380.989 303.144 381.309 304.424L384.637 318.824C384.893 320.04 383.997 321 382.717 321H340.733H340.605V315.88H353.085L351.677 309.736C351.421 308.584 352.445 307.688 353.789 307.688Z" fill="#8428BE"/>
<path d="M337.16 324.456L337.224 324.52C340.36 338.28 320.584 334.248 322.248 334.184C334.792 333.608 332.168 324.392 332.168 324.392V324.264L331.4 321H319.176C317.768 321 316.36 319.912 316.04 318.504L314.184 310.376L314.248 310.44C313.928 309.032 314.76 307.88 316.232 307.88H330.952H330.888C332.296 307.88 333.576 308.776 333.832 309.928V309.992L335.24 315.944H342.408V321.064H336.392L337.16 324.456ZM320.584 315.944H330.248L329.544 313H319.88H319.816L320.52 315.944H320.584Z" fill="#8428BE"/>
<path d="M306.683 321.32C305.275 321.32 303.931 320.36 303.675 319.272L295.739 284.776C295.483 283.688 296.315 282.728 297.723 282.728C299.131 282.728 300.475 283.688 300.731 284.776L308.667 319.272C308.923 320.36 308.091 321.32 306.683 321.32Z" fill="#8428BE"/>
<path d="M256.219 321V315.944H267.995C267.099 314.92 266.459 313.576 266.139 312.168C264.987 307.176 268.123 303.208 273.051 303.208H281.371C281.371 303.208 285.595 307.176 292.571 308.2H274.267C272.091 308.2 270.811 309.8 271.323 312.168C271.835 314.28 273.883 315.944 276.059 315.944H292.827C293.915 315.944 295.067 317.224 295.387 318.44C295.707 319.912 295.067 321 293.979 321H256.219Z" fill="#8428BE"/>
<path d="M258.52 315.944L258.584 321H215.192C214.104 321 212.952 320.04 212.632 318.632C212.312 317.288 212.952 315.944 214.04 315.944H249.048L248.92 315.304C248.408 313.256 246.232 311.336 244.056 311.336H216.408C215 311.336 213.912 310.632 213.656 309.48L212.632 305.064C212.376 303.912 213.208 303.144 214.616 303.144C215.96 303.144 217.176 304.104 217.368 305.128L217.688 306.664H243.096C247.896 306.664 252.696 310.568 253.784 315.304L253.912 315.944H258.52Z" fill="#8428BE"/>
</g>
<defs>
<linearGradient id="paint0_linear_188_58" x1="0.188232" y1="192.406" x2="385.188" y2="192.406" gradientUnits="userSpaceOnUse">
<stop stop-color="#8D16BA"/>
<stop offset="1" stop-color="#5F80D6"/>
</linearGradient>
<linearGradient id="paint1_linear_188_58" x1="114.31" y1="88.2483" x2="209.485" y2="88.2483" gradientUnits="userSpaceOnUse">
<stop stop-color="#8D16BA"/>
<stop offset="1" stop-color="#5F80D6"/>
</linearGradient>
<clipPath id="clip0_188_58">
<rect width="385" height="384" fill="white" transform="translate(0.188232 0.40625)"/>
</clipPath>
</defs>
</svg>
